<svg xmlns="http://www.w3.org/2000/svg" xmlns:xlink="http://www.w3.org/1999/xlink" width="1200" viewBox="0 0 900 899.99999" height="1200" preserveAspectRatio="xMidYMid meet"><defs><g/><clipPath id="119b7f2b09"><path d="M 401.449219 713 L 510.804688 713 L 510.804688 798 L 401.449219 798 Z M 401.449219 713" clip-rule="nonzero"/></clipPath><clipPath id="b2effbc937"><path d="M 436.917969 713.03125 L 475.691406 713.03125 C 495.074219 713.03125 510.757812 728.75 510.757812 748.097656 L 510.757812 762.699219 C 510.757812 782.085938 495.039062 797.769531 475.691406 797.769531 L 436.917969 797.769531 C 417.53125 797.769531 401.847656 782.050781 401.847656 762.699219 L 401.847656 748.132812 C 401.847656 728.75 417.566406 713.066406 436.917969 713.066406" clip-rule="nonzero"/></clipPath><clipPath id="4aaa96fa55"><path d="M 0.761719 0 L 109.804688 0 L 109.804688 85 L 0.761719 85 Z M 0.761719 0" clip-rule="nonzero"/></clipPath><clipPath id="94ff4f4eb9"><path d="M 35.917969 0.03125 L 74.691406 0.03125 C 94.074219 0.03125 109.757812 15.75 109.757812 35.097656 L 109.757812 49.699219 C 109.757812 69.085938 94.039062 84.769531 74.691406 84.769531 L 35.917969 84.769531 C 16.53125 84.769531 0.847656 69.050781 0.847656 49.699219 L 0.847656 35.132812 C 0.847656 15.75 16.566406 0.0664062 35.917969 0.0664062" clip-rule="nonzero"/></clipPath><clipPath id="fc0ce9cfad"><rect x="0" width="110" y="0" height="85"/></clipPath><clipPath id="d8bb92731c"><path d="M 399.019531 710.199219 L 513.234375 710.199219 L 513.234375 800.601562 L 399.019531 800.601562 Z M 399.019531 710.199219" clip-rule="nonzero"/></clipPath><clipPath id="e75b36bb40"><path d="M 436.917969 710.65625 L 475.691406 710.65625 L 475.691406 713.03125 L 475.691406 710.65625 C 496.367188 710.65625 513.132812 727.421875 513.132812 748.132812 L 510.757812 748.132812 L 513.132812 748.132812 L 513.132812 762.699219 L 510.757812 762.699219 L 513.132812 762.699219 C 513.132812 783.378906 496.367188 800.179688 475.691406 800.179688 L 436.917969 800.179688 C 416.238281 800.144531 399.472656 783.378906 399.472656 762.699219 L 401.847656 762.699219 L 399.472656 762.699219 L 399.472656 748.132812 L 401.847656 748.132812 L 399.472656 748.132812 C 399.472656 727.421875 416.238281 710.65625 436.917969 710.65625 L 436.917969 713.03125 L 436.917969 710.65625 M 436.917969 715.40625 C 418.859375 715.40625 404.222656 730.039062 404.222656 748.097656 L 404.222656 762.699219 C 404.222656 780.757812 418.859375 795.394531 436.917969 795.394531 L 475.691406 795.394531 C 493.75 795.394531 508.382812 780.757812 508.382812 762.699219 L 508.382812 748.132812 C 508.382812 730.074219 493.75 715.441406 475.691406 715.441406 L 436.917969 715.441406 Z M 436.917969 715.40625" clip-rule="nonzero"/></clipPath><clipPath id="146f69ab47"><path d="M 0.359375 0.640625 L 114.234375 0.640625 L 114.234375 90.398438 L 0.359375 90.398438 Z M 0.359375 0.640625" clip-rule="nonzero"/></clipPath><clipPath id="7196cd3179"><path d="M 37.917969 0.65625 L 76.691406 0.65625 L 76.691406 3.03125 L 76.691406 0.65625 C 97.367188 0.65625 114.132812 17.421875 114.132812 38.132812 L 111.757812 38.132812 L 114.132812 38.132812 L 114.132812 52.699219 L 111.757812 52.699219 L 114.132812 52.699219 C 114.132812 73.378906 97.367188 90.179688 76.691406 90.179688 L 37.917969 90.179688 C 17.238281 90.144531 0.472656 73.378906 0.472656 52.699219 L 2.847656 52.699219 L 0.472656 52.699219 L 0.472656 38.132812 L 2.847656 38.132812 L 0.472656 38.132812 C 0.472656 17.421875 17.238281 0.65625 37.917969 0.65625 L 37.917969 3.03125 L 37.917969 0.65625 M 37.917969 5.40625 C 19.859375 5.40625 5.222656 20.039062 5.222656 38.097656 L 5.222656 52.699219 C 5.222656 70.757812 19.859375 85.394531 37.917969 85.394531 L 76.691406 85.394531 C 94.75 85.394531 109.382812 70.757812 109.382812 52.699219 L 109.382812 38.132812 C 109.382812 20.074219 94.75 5.441406 76.691406 5.441406 L 37.917969 5.441406 Z M 37.917969 5.40625" clip-rule="nonzero"/></clipPath><clipPath id="70b542489a"><rect x="0" width="115" y="0" height="91"/></clipPath><clipPath id="63066e349f"><path d="M 253 713 L 362.175781 713 L 362.175781 798 L 253 798 Z M 253 713" clip-rule="nonzero"/></clipPath><clipPath id="eedf28c028"><path d="M 288.289062 713.03125 L 327.058594 713.03125 C 346.445312 713.03125 362.128906 728.75 362.128906 748.097656 L 362.128906 762.699219 C 362.128906 782.085938 346.410156 797.769531 327.058594 797.769531 L 288.289062 797.769531 C 268.902344 797.769531 253.21875 782.050781 253.21875 762.699219 L 253.21875 748.132812 C 253.21875 728.75 268.9375 713.066406 288.289062 713.066406" clip-rule="nonzero"/></clipPath><clipPath id="0efd2a019c"><path d="M 0.199219 0 L 109.160156 0 L 109.160156 85 L 0.199219 85 Z M 0.199219 0" clip-rule="nonzero"/></clipPath><clipPath id="3cb3a39a9f"><path d="M 35.289062 0.03125 L 74.058594 0.03125 C 93.445312 0.03125 109.128906 15.75 109.128906 35.097656 L 109.128906 49.699219 C 109.128906 69.085938 93.410156 84.769531 74.058594 84.769531 L 35.289062 84.769531 C 15.902344 84.769531 0.21875 69.050781 0.21875 49.699219 L 0.21875 35.132812 C 0.21875 15.75 15.9375 0.0664062 35.289062 0.0664062" clip-rule="nonzero"/></clipPath><clipPath id="e1ce3f3e9a"><rect x="0" width="110" y="0" height="85"/></clipPath><clipPath id="82e4ac4a3a"><path d="M 250.390625 710.199219 L 364.605469 710.199219 L 364.605469 800.601562 L 250.390625 800.601562 Z M 250.390625 710.199219" clip-rule="nonzero"/></clipPath><clipPath id="bf8b7e318e"><path d="M 288.289062 710.65625 L 327.058594 710.65625 L 327.058594 713.03125 L 327.058594 710.65625 C 347.738281 710.65625 364.503906 727.421875 364.503906 748.132812 L 362.128906 748.132812 L 364.503906 748.132812 L 364.503906 762.699219 L 362.128906 762.699219 L 364.503906 762.699219 C 364.503906 783.378906 347.738281 800.179688 327.058594 800.179688 L 288.289062 800.179688 C 267.609375 800.144531 250.84375 783.378906 250.84375 762.699219 L 253.21875 762.699219 L 250.84375 762.699219 L 250.84375 748.132812 L 253.21875 748.132812 L 250.84375 748.132812 C 250.84375 727.421875 267.609375 710.65625 288.289062 710.65625 L 288.289062 713.03125 L 288.289062 710.65625 M 288.289062 715.40625 C 270.230469 715.40625 255.59375 730.039062 255.59375 748.097656 L 255.59375 762.699219 C 255.59375 780.757812 270.230469 795.394531 288.289062 795.394531 L 327.058594 795.394531 C 345.117188 795.394531 359.753906 780.757812 359.753906 762.699219 L 359.753906 748.132812 C 359.753906 730.074219 345.117188 715.441406 327.058594 715.441406 L 288.289062 715.441406 Z M 288.289062 715.40625" clip-rule="nonzero"/></clipPath><clipPath id="1b99251672"><path d="M 0.800781 0.640625 L 114.558594 0.640625 L 114.558594 90.398438 L 0.800781 90.398438 Z M 0.800781 0.640625" clip-rule="nonzero"/></clipPath><clipPath id="17ea3ed1f9"><path d="M 38.289062 0.65625 L 77.058594 0.65625 L 77.058594 3.03125 L 77.058594 0.65625 C 97.738281 0.65625 114.503906 17.421875 114.503906 38.132812 L 112.128906 38.132812 L 114.503906 38.132812 L 114.503906 52.699219 L 112.128906 52.699219 L 114.503906 52.699219 C 114.503906 73.378906 97.738281 90.179688 77.058594 90.179688 L 38.289062 90.179688 C 17.609375 90.144531 0.84375 73.378906 0.84375 52.699219 L 3.21875 52.699219 L 0.84375 52.699219 L 0.84375 38.132812 L 3.21875 38.132812 L 0.84375 38.132812 C 0.84375 17.421875 17.609375 0.65625 38.289062 0.65625 L 38.289062 3.03125 L 38.289062 0.65625 M 38.289062 5.40625 C 20.230469 5.40625 5.59375 20.039062 5.59375 38.097656 L 5.59375 52.699219 C 5.59375 70.757812 20.230469 85.394531 38.289062 85.394531 L 77.058594 85.394531 C 95.117188 85.394531 109.753906 70.757812 109.753906 52.699219 L 109.753906 38.132812 C 109.753906 20.074219 95.117188 5.441406 77.058594 5.441406 L 38.289062 5.441406 Z M 38.289062 5.40625" clip-rule="nonzero"/></clipPath><clipPath id="6d37bb5bcf"><rect x="0" width="115" y="0" height="91"/></clipPath><clipPath id="28edb0201a"><path d="M 104.191406 713 L 213.546875 713 L 213.546875 798 L 104.191406 798 Z M 104.191406 713" clip-rule="nonzero"/></clipPath><clipPath id="8c903fb30f"><path d="M 139.660156 713.03125 L 178.429688 713.03125 C 197.816406 713.03125 213.5 728.75 213.5 748.097656 L 213.5 762.699219 C 213.5 782.085938 197.78125 797.769531 178.429688 797.769531 L 139.660156 797.769531 C 120.273438 797.769531 104.589844 782.050781 104.589844 762.699219 L 104.589844 748.132812 C 104.589844 728.75 120.308594 713.066406 139.660156 713.066406" clip-rule="nonzero"/></clipPath><clipPath id="4047de5010"><path d="M 0.398438 0 L 109.546875 0 L 109.546875 85 L 0.398438 85 Z M 0.398438 0" clip-rule="nonzero"/></clipPath><clipPath id="6e5999e956"><path d="M 35.660156 0.03125 L 74.429688 0.03125 C 93.816406 0.03125 109.5 15.75 109.5 35.097656 L 109.5 49.699219 C 109.5 69.085938 93.78125 84.769531 74.429688 84.769531 L 35.660156 84.769531 C 16.273438 84.769531 0.589844 69.050781 0.589844 49.699219 L 0.589844 35.132812 C 0.589844 15.75 16.308594 0.0664062 35.660156 0.0664062" clip-rule="nonzero"/></clipPath><clipPath id="c47614d3f8"><rect x="0" width="110" y="0" height="85"/></clipPath><clipPath id="20df9ac474"><path d="M 102 710.199219 L 215.976562 710.199219 L 215.976562 800.601562 L 102 800.601562 Z M 102 710.199219" clip-rule="nonzero"/></clipPath><clipPath id="37e2033ff7"><path d="M 139.660156 710.65625 L 178.429688 710.65625 L 178.429688 713.03125 L 178.429688 710.65625 C 199.109375 710.65625 215.875 727.421875 215.875 748.132812 L 213.5 748.132812 L 215.875 748.132812 L 215.875 762.699219 L 213.5 762.699219 L 215.875 762.699219 C 215.875 783.378906 199.109375 800.179688 178.429688 800.179688 L 139.660156 800.179688 C 118.980469 800.144531 102.214844 783.378906 102.214844 762.699219 L 104.589844 762.699219 L 102.214844 762.699219 L 102.214844 748.132812 L 104.589844 748.132812 L 102.214844 748.132812 C 102.214844 727.421875 118.980469 710.65625 139.660156 710.65625 L 139.660156 713.03125 L 139.660156 710.65625 M 139.660156 715.40625 C 121.601562 715.40625 106.964844 730.039062 106.964844 748.097656 L 106.964844 762.699219 C 106.964844 780.757812 121.601562 795.394531 139.660156 795.394531 L 178.429688 795.394531 C 196.488281 795.394531 211.125 780.757812 211.125 762.699219 L 211.125 748.132812 C 211.125 730.074219 196.488281 715.441406 178.429688 715.441406 L 139.660156 715.441406 Z M 139.660156 715.40625" clip-rule="nonzero"/></clipPath><clipPath id="44c20d6317"><path d="M 0 0.640625 L 113.976562 0.640625 L 113.976562 90.398438 L 0 90.398438 Z M 0 0.640625" clip-rule="nonzero"/></clipPath><clipPath id="abf5250985"><path d="M 37.660156 0.65625 L 76.429688 0.65625 L 76.429688 3.03125 L 76.429688 0.65625 C 97.109375 0.65625 113.875 17.421875 113.875 38.132812 L 111.5 38.132812 L 113.875 38.132812 L 113.875 52.699219 L 111.5 52.699219 L 113.875 52.699219 C 113.875 73.378906 97.109375 90.179688 76.429688 90.179688 L 37.660156 90.179688 C 16.980469 90.144531 0.214844 73.378906 0.214844 52.699219 L 2.589844 52.699219 L 0.214844 52.699219 L 0.214844 38.132812 L 2.589844 38.132812 L 0.214844 38.132812 C 0.214844 17.421875 16.980469 0.65625 37.660156 0.65625 L 37.660156 3.03125 L 37.660156 0.65625 M 37.660156 5.40625 C 19.601562 5.40625 4.964844 20.039062 4.964844 38.097656 L 4.964844 52.699219 C 4.964844 70.757812 19.601562 85.394531 37.660156 85.394531 L 76.429688 85.394531 C 94.488281 85.394531 109.125 70.757812 109.125 52.699219 L 109.125 38.132812 C 109.125 20.074219 94.488281 5.441406 76.429688 5.441406 L 37.660156 5.441406 Z M 37.660156 5.40625" clip-rule="nonzero"/></clipPath><clipPath id="1c54663499"><rect x="0" width="114" y="0" height="91"/></clipPath><clipPath id="6635e49983"><path d="M 655.195312 713 L 764.550781 713 L 764.550781 798 L 655.195312 798 Z M 655.195312 713" clip-rule="nonzero"/></clipPath><clipPath id="46d3638e00"><path d="M 690.664062 713.03125 L 729.433594 713.03125 C 748.820312 713.03125 764.503906 728.75 764.503906 748.097656 L 764.503906 762.699219 C 764.503906 782.085938 748.785156 797.769531 729.433594 797.769531 L 690.664062 797.769531 C 671.277344 797.769531 655.59375 782.050781 655.59375 762.699219 L 655.59375 748.132812 C 655.59375 728.75 671.3125 713.066406 690.664062 713.066406" clip-rule="nonzero"/></clipPath><clipPath id="f3f2bb302b"><path d="M 0.441406 0 L 109.550781 0 L 109.550781 85 L 0.441406 85 Z M 0.441406 0" clip-rule="nonzero"/></clipPath><clipPath id="9f6eab6a73"><path d="M 35.664062 0.03125 L 74.433594 0.03125 C 93.820312 0.03125 109.503906 15.75 109.503906 35.097656 L 109.503906 49.699219 C 109.503906 69.085938 93.785156 84.769531 74.433594 84.769531 L 35.664062 84.769531 C 16.277344 84.769531 0.59375 69.050781 0.59375 49.699219 L 0.59375 35.132812 C 0.59375 15.75 16.3125 0.0664062 35.664062 0.0664062" clip-rule="nonzero"/></clipPath><clipPath id="be5ea9c835"><rect x="0" width="110" y="0" height="85"/></clipPath><clipPath id="4f62c4a1a6"><path d="M 653 710.199219 L 766.980469 710.199219 L 766.980469 800.601562 L 653 800.601562 Z M 653 710.199219" clip-rule="nonzero"/></clipPath><clipPath id="dd8241f547"><path d="M 690.664062 710.65625 L 729.433594 710.65625 L 729.433594 713.03125 L 729.433594 710.65625 C 750.113281 710.65625 766.878906 727.421875 766.878906 748.132812 L 764.503906 748.132812 L 766.878906 748.132812 L 766.878906 762.699219 L 764.503906 762.699219 L 766.878906 762.699219 C 766.878906 783.378906 750.113281 800.179688 729.433594 800.179688 L 690.664062 800.179688 C 669.984375 800.144531 653.21875 783.378906 653.21875 762.699219 L 655.59375 762.699219 L 653.21875 762.699219 L 653.21875 748.132812 L 655.59375 748.132812 L 653.21875 748.132812 C 653.21875 727.421875 669.984375 710.65625 690.664062 710.65625 L 690.664062 713.03125 L 690.664062 710.65625 M 690.664062 715.40625 C 672.605469 715.40625 657.96875 730.039062 657.96875 748.097656 L 657.96875 762.699219 C 657.96875 780.757812 672.605469 795.394531 690.664062 795.394531 L 729.433594 795.394531 C 747.492188 795.394531 762.128906 780.757812 762.128906 762.699219 L 762.128906 748.132812 C 762.128906 730.074219 747.492188 715.441406 729.433594 715.441406 L 690.664062 715.441406 Z M 690.664062 715.40625" clip-rule="nonzero"/></clipPath><clipPath id="634ad1ab89"><path d="M 0.0390625 0.640625 L 113.980469 0.640625 L 113.980469 90.398438 L 0.0390625 90.398438 Z M 0.0390625 0.640625" clip-rule="nonzero"/></clipPath><clipPath id="4d13010c31"><path d="M 37.664062 0.65625 L 76.433594 0.65625 L 76.433594 3.03125 L 76.433594 0.65625 C 97.113281 0.65625 113.878906 17.421875 113.878906 38.132812 L 111.503906 38.132812 L 113.878906 38.132812 L 113.878906 52.699219 L 111.503906 52.699219 L 113.878906 52.699219 C 113.878906 73.378906 97.113281 90.179688 76.433594 90.179688 L 37.664062 90.179688 C 16.984375 90.144531 0.21875 73.378906 0.21875 52.699219 L 2.59375 52.699219 L 0.21875 52.699219 L 0.21875 38.132812 L 2.59375 38.132812 L 0.21875 38.132812 C 0.21875 17.421875 16.984375 0.65625 37.664062 0.65625 L 37.664062 3.03125 L 37.664062 0.65625 M 37.664062 5.40625 C 19.605469 5.40625 4.96875 20.039062 4.96875 38.097656 L 4.96875 52.699219 C 4.96875 70.757812 19.605469 85.394531 37.664062 85.394531 L 76.433594 85.394531 C 94.492188 85.394531 109.128906 70.757812 109.128906 52.699219 L 109.128906 38.132812 C 109.128906 20.074219 94.492188 5.441406 76.433594 5.441406 L 37.664062 5.441406 Z M 37.664062 5.40625" clip-rule="nonzero"/></clipPath><clipPath id="515965346f"><rect x="0" width="114" y="0" height="91"/></clipPath></defs><rect x="-90" width="1080" fill="#ffffff" y="-89.999999" height="1079.999988" fill-opacity="1"/><rect x="-90" width="1080" fill="#ffffff" y="-89.999999" height="1079.999988" fill-opacity="1"/><g fill="#151515" fill-opacity="1"><g transform="translate(170.197261, 668.4727)"><g><path d="M 455.65625 -514.453125 C 477.351562 -514.453125 495.375 -509.722656 509.71875 -500.265625 C 524.070312 -490.816406 531.25 -474.894531 531.25 -452.5 C 531.25 -439.90625 527.75 -420.304688 520.75 -393.703125 C 513.75 -367.109375 504.472656 -336.3125 492.921875 -301.3125 C 481.367188 -266.320312 468.59375 -230.628906 454.59375 -194.234375 C 440.601562 -157.835938 426.609375 -123.710938 412.609375 -91.859375 C 398.609375 -60.015625 386.007812 -33.59375 374.8125 -12.59375 C 367.113281 -7 354.863281 -1.925781 338.0625 2.625 C 321.269531 7.175781 302.722656 9.453125 282.421875 9.453125 C 258.617188 9.453125 238.144531 6.300781 221 0 C 203.851562 -6.300781 191.78125 -16.097656 184.78125 -29.390625 C 177.082031 -44.085938 167.632812 -64.734375 156.4375 -91.328125 C 145.238281 -117.929688 133.335938 -148.207031 120.734375 -182.15625 C 108.140625 -216.101562 95.539062 -251.273438 82.9375 -287.671875 C 70.34375 -324.066406 58.796875 -359.0625 48.296875 -392.65625 C 37.796875 -426.25 29.394531 -455.644531 23.09375 -480.84375 C 32.195312 -489.945312 43.921875 -497.820312 58.265625 -504.46875 C 72.617188 -511.125 88.191406 -514.453125 104.984375 -514.453125 C 126.679688 -514.453125 144.53125 -509.898438 158.53125 -500.796875 C 172.53125 -491.703125 182.679688 -474.554688 188.984375 -449.359375 L 236.21875 -282.421875 C 241.820312 -262.828125 247.597656 -243.226562 253.546875 -223.625 C 259.492188 -204.03125 264.914062 -185.832031 269.8125 -169.03125 C 274.71875 -152.226562 278.921875 -137.878906 282.421875 -125.984375 L 286.625 -125.984375 C 303.414062 -182.679688 320.382812 -243.398438 337.53125 -308.140625 C 354.6875 -372.878906 369.910156 -436.046875 383.203125 -497.640625 C 404.203125 -508.847656 428.351562 -514.453125 455.65625 -514.453125 Z M 455.65625 -514.453125"/></g></g></g><g clip-path="url(#119b7f2b09)"><g clip-path="url(#b2effbc937)"><g transform="matrix(1, 0, 0, 1, 401, 713)"><g clip-path="url(#fc0ce9cfad)"><g clip-path="url(#4aaa96fa55)"><g clip-path="url(#94ff4f4eb9)"><rect x="-599" width="1296" fill="#8bc540" height="1295.999986" y="-910.999998" fill-opacity="1"/></g></g></g></g></g></g><g clip-path="url(#d8bb92731c)"><g clip-path="url(#e75b36bb40)"><g transform="matrix(1, 0, 0, 1, 399, 710)"><g clip-path="url(#70b542489a)"><g clip-path="url(#146f69ab47)"><g clip-path="url(#7196cd3179)"><rect x="-597" width="1296" fill="#8dc63f" height="1295.999986" y="-907.999998" fill-opacity="1"/></g></g></g></g></g></g><g clip-path="url(#63066e349f)"><g clip-path="url(#eedf28c028)"><g transform="matrix(1, 0, 0, 1, 253, 713)"><g clip-path="url(#e1ce3f3e9a)"><g clip-path="url(#0efd2a019c)"><g clip-path="url(#3cb3a39a9f)"><rect x="-451" width="1296" fill="#8bc540" height="1295.999986" y="-910.999998" fill-opacity="1"/></g></g></g></g></g></g><g clip-path="url(#82e4ac4a3a)"><g clip-path="url(#bf8b7e318e)"><g transform="matrix(1, 0, 0, 1, 250, 710)"><g clip-path="url(#6d37bb5bcf)"><g clip-path="url(#1b99251672)"><g clip-path="url(#17ea3ed1f9)"><rect x="-448" width="1296" fill="#8dc63f" height="1295.999986" y="-907.999998" fill-opacity="1"/></g></g></g></g></g></g><g clip-path="url(#28edb0201a)"><g clip-path="url(#8c903fb30f)"><g transform="matrix(1, 0, 0, 1, 104, 713)"><g clip-path="url(#c47614d3f8)"><g clip-path="url(#4047de5010)"><g clip-path="url(#6e5999e956)"><rect x="-302" width="1296" fill="#8bc540" height="1295.999986" y="-910.999998" fill-opacity="1"/></g></g></g></g></g></g><g clip-path="url(#20df9ac474)"><g clip-path="url(#37e2033ff7)"><g transform="matrix(1, 0, 0, 1, 102, 710)"><g clip-path="url(#1c54663499)"><g clip-path="url(#44c20d6317)"><g clip-path="url(#abf5250985)"><rect x="-300" width="1296" fill="#8dc63f" height="1295.999986" y="-907.999998" fill-opacity="1"/></g></g></g></g></g></g><g clip-path="url(#6635e49983)"><g clip-path="url(#46d3638e00)"><g transform="matrix(1, 0, 0, 1, 655, 713)"><g clip-path="url(#be5ea9c835)"><g clip-path="url(#f3f2bb302b)"><g clip-path="url(#9f6eab6a73)"><rect x="-853" width="1296" fill="#8bc540" height="1295.999986" y="-910.999998" fill-opacity="1"/></g></g></g></g></g></g><g clip-path="url(#4f62c4a1a6)"><g clip-path="url(#dd8241f547)"><g transform="matrix(1, 0, 0, 1, 653, 710)"><g clip-path="url(#515965346f)"><g clip-path="url(#634ad1ab89)"><g clip-path="url(#4d13010c31)"><rect x="-851" width="1296" fill="#8dc63f" height="1295.999986" y="-907.999998" fill-opacity="1"/></g></g></g></g></g></g></svg>